<svg width="56" height="37" viewBox="0 0 56 37" fill="none" xmlns="http://www.w3.org/2000/svg">
<path d="M18.9219 0.476562V3.35938C14.7969 5.51563 11.8438 7.76563 10.0625 10.1094C8.28125 12.4531 7.39062 15.0078 7.39062 17.7734C7.39062 19.4141 7.625 20.5391 8.09375 21.1484C8.51562 21.8047 9.03125 22.1328 9.64062 22.1328C10.25 22.1328 11.0703 21.9688 12.1016 21.6406C13.1328 21.2656 14.0703 21.0781 14.9141 21.0781C16.8359 21.0781 18.5 21.8047 19.9062 23.2578C21.3594 24.6641 22.0859 26.3984 22.0859 28.4609C22.0859 30.7109 21.2188 32.6562 19.4844 34.2969C17.75 35.8906 15.5938 36.6875 13.0156 36.6875C9.875 36.6875 7.03906 35.3281 4.50781 32.6094C1.97656 29.8906 0.710938 26.5391 0.710938 22.5547C0.710938 17.8672 2.25781 13.5078 5.35156 9.47656C8.49219 5.39844 13.0156 2.39844 18.9219 0.476562ZM52.4609 0.6875V3.35938C47.7266 6.07813 44.6094 8.51562 43.1094 10.6719C41.6094 12.8281 40.8594 15.3594 40.8594 18.2656C40.8594 19.5781 41.1172 20.5625 41.6328 21.2188C42.1484 21.875 42.6875 22.2031 43.25 22.2031C43.7656 22.2031 44.5391 22.0156 45.5703 21.6406C46.6016 21.2656 47.6328 21.0781 48.6641 21.0781C50.5859 21.0781 52.25 21.7812 53.6562 23.1875C55.1094 24.5469 55.8359 26.2344 55.8359 28.25C55.8359 30.5469 54.9219 32.5391 53.0938 34.2266C51.3125 35.9141 49.1094 36.7578 46.4844 36.7578C43.3906 36.7578 40.6016 35.4219 38.1172 32.75C35.6328 30.0781 34.3906 26.75 34.3906 22.7656C34.3906 17.8438 35.9609 13.3672 39.1016 9.33594C42.2422 5.25781 46.6953 2.375 52.4609 0.6875Z" fill="black"/>
</svg>
